<?xml version="1.0" encoding="UTF-8"?>
<svg id="Layer_1" data-name="Layer 1" xmlns="http://www.w3.org/2000/svg" xmlns:xlink="http://www.w3.org/1999/xlink" viewBox="0 0 500 500">
  <defs>
    <style>
      .cls-1 {
        fill: url(#linear-gradient);
      }

      .cls-2 {
        fill: #fff;
      }
    </style>
    <linearGradient id="linear-gradient" x1="420.75" y1="-45.75" x2="79.25" y2="545.75" gradientUnits="userSpaceOnUse">
      <stop offset=".02" stop-color="#0047bb"/>
      <stop offset=".33" stop-color="#3231bd"/>
      <stop offset=".78" stop-color="#7815c2"/>
    </linearGradient>
  </defs>
  <rect class="cls-1" width="500" height="500"/>
  <path class="cls-2" d="M253.07,256.31v91.39c3.05.78,5.64,2.71,7.29,5.3l37.22-12.15c.1-1.78.77-3.42,1.82-4.73l-46.1-79.87-.23.06ZM195.34,333.02l46.07-79.82c-2.28-2.23-3.7-5.34-3.7-8.78,0-.55.04-1.09.11-1.62l-64.13-25.91c-1.01,1.12-2.22,2.05-3.57,2.74l25.22,113.4ZM200.69,346.71l46,79.68.24-.06v-54.84c-5.3-1.36-9.22-6.17-9.22-11.9,0-.26.01-.52.03-.78l-37.05-12.1ZM85.87,147.82l79.17,137.13h0s21.74,37.66,21.74,37.66l-22.61-101.67c-6.6-.21-11.89-5.63-11.89-12.27,0-1.86.41-3.63,1.16-5.21l-67.57-55.64ZM178.89,137.8h-92.22c-.19.74-.45,1.46-.77,2.14l71.41,58.8c2.03-1.49,4.53-2.36,7.24-2.36h.48s16.48-55.06,16.48-55.06c-1.16-.91-2.07-2.12-2.62-3.52ZM241.41,235.63l-53.48-92.62c-.18.03-.37.05-.55.06l-16.48,55.07c3.56,2.15,5.94,6.06,5.94,10.52,0,.95-.11,1.88-.31,2.76l63.59,25.69c.39-.53.83-1.03,1.29-1.49ZM312.07,143.01l-53.48,92.62c.47.46.9.96,1.29,1.49l63.59-25.69c-.2-.89-.31-1.81-.31-2.76,0-4.46,2.38-8.37,5.94-10.52l-16.48-55.07c-.19-.02-.37-.03-.55-.06ZM413.32,137.8h-92.22c-.55,1.39-1.46,2.6-2.62,3.52l16.48,55.08h.48c2.71-.01,5.21.87,7.24,2.35l71.41-58.8c-.32-.68-.58-1.4-.77-2.14ZM313.23,322.6l21.74-37.65h0s79.17-137.14,79.17-137.14l-67.57,55.64c.74,1.58,1.16,3.35,1.16,5.21,0,6.65-5.29,12.07-11.89,12.27l-22.61,101.67ZM253.31,426.39l46-79.68-37.05,12.1c.02.26.03.52.03.78,0,5.72-3.92,10.53-9.22,11.9v54.84l.24.06ZM304.66,333.02l25.22-113.4c-1.35-.69-2.57-1.62-3.57-2.74l-64.13,25.91c.07.53.11,1.07.11,1.62,0,3.44-1.42,6.55-3.7,8.78l46.07,79.82ZM195.31,349.61c-.41.06-.83.09-1.25.09-4.62,0-8.37-3.75-8.37-8.37,0-1.97.68-3.79,1.83-5.22l-27.77-48.1h0s-81.66-141.44-81.66-141.44c-1.05.29-2.16.45-3.3.45-6.78,0-12.28-5.5-12.28-12.28s5.5-12.28,12.28-12.28c5.72,0,10.53,3.92,11.9,9.22h92.22c1.22-3.1,4.25-5.3,7.79-5.3,4.62,0,8.37,3.75,8.37,8.37,0,1.98-.68,3.79-1.83,5.22l53.48,92.62c1.05-.29,2.16-.45,3.31-.45s2.26.16,3.31.45l53.48-92.62c-1.15-1.43-1.83-3.24-1.83-5.22,0-4.62,3.75-8.37,8.37-8.37,3.54,0,6.56,2.2,7.79,5.3h92.22c1.36-5.3,6.17-9.22,11.9-9.22,6.78,0,12.28,5.5,12.28,12.28s-5.5,12.28-12.28,12.28c-1.14,0-2.25-.16-3.3-.45l-81.66,141.44h0s-27.77,48.1-27.77,48.1c1.14,1.43,1.83,3.24,1.83,5.22,0,4.62-3.75,8.37-8.37,8.37-.43,0-.84-.03-1.25-.09l-46.1,79.84c2.28,2.23,3.69,5.34,3.69,8.78,0,6.78-5.5,12.28-12.28,12.28s-12.28-5.5-12.28-12.28c0-3.44,1.41-6.55,3.69-8.78l-46.1-79.84ZM200.6,336.11c1.05,1.31,1.71,2.94,1.82,4.73l37.22,12.15c1.65-2.58,4.24-4.51,7.29-5.3v-91.39l-.23-.06-46.1,79.87Z"/>
</svg>
